ffmpeg version git-2026-04-19-de18feb Copyright (c) 2000-2026 the FFmpeg developers
  built with gcc 9 (Ubuntu 9.4.0-1ubuntu1~20.04.2)
  configuration: --enable-shared --enable-gpl --enable-libx264
  libavutil      60. 30.100 / 60. 30.100
  libavcodec     62. 30.100 / 62. 30.100
  libavformat    62. 13.102 / 62. 13.102
  libavdevice    62.  4.100 / 62.  4.100
  libavfilter    11. 15.101 / 11. 15.101
  libswscale      9.  7.100 /  9.  7.100
  libswresample   6.  4.100 /  6.  4.100
[in#0/x11grab @ 0x55b164fa5c40] Stream #0: not enough frames to estimate rate; consider increasing probesize
Input #0, x11grab, from ':0.0+0,0':
  Duration: N/A, start: 1777357852.417850, bitrate: 3678192 kb/s
  Stream #0:0: Video: rawvideo (BGR[0] / 0x524742), bgr0, 2870x1602, 3678192 kb/s, 25 fps, 1000k tbr, 1000k tbn, start 1777357852.417850
Stream mapping:
  Stream #0:0 -> #0:0 (rawvideo (native) -> h264 (libx264))
[libx264 @ 0x55b164fb3f00] using cpu capabilities: MMX2 SSE2Fast SSSE3 SSE4.2 AVX FMA3 BMI2 AVX2
[libx264 @ 0x55b164fb3f00] profile High, level 5.0
[libx264 @ 0x55b164fb3f00] 264 - core 155 r2917 0a84d98 - H.264/MPEG-4 AVC codec - Copyleft 2003-2018 - http://www.videolan.org/x264.html - options: cabac=1 ref=1 deblock=1:0:0 analyse=0x3:0x113 me=hex subme=2 psy=1 psy_rd=1.00:0.00 mixed_ref=0 me_range=16 chroma_me=1 trellis=0 8x8dct=1 cqm=0 deadzone=21,11 fast_pskip=1 chroma_qp_offset=0 threads=6 lookahead_threads=2 sliced_threads=0 nr=0 decimate=1 interlaced=0 bluray_compat=0 constrained_intra=0 bframes=3 b_pyramid=2 b_adapt=1 b_bias=0 direct=1 weightb=1 open_gop=0 weightp=1 keyint=250 keyint_min=25 scenecut=40 intra_refresh=0 rc_lookahead=10 rc=crf mbtree=1 crf=23.0 qcomp=0.60 qpmin=0 qpmax=69 qpstep=4 ip_ratio=1.40 aq=1:1.00
Output #0, matroska, to '/home/lmy/catkin_ws/recordings_tmp/tennis_pickup_screen_20260427_233033_screen.mkv':
  Metadata:
    encoder         : Lavf62.13.102
  Stream #0:0: Video: h264 (H264 / 0x34363248), yuv420p(tv, progressive), 2870x1602, q=2-31, 25 fps, 1k tbn
    Metadata:
      encoder         : Lavc62.30.100 libx264
    Side data:
      CPB properties: bitrate max/min/avg: 0/0/0 buffer size: 0 vbv_delay: N/A
frame=    0 fps=0.0 q=0.0 size=       0KiB time=N/A bitrate=N/A speed=N/A elapsed=0:00:00.50    frame=    5 fps=5.0 q=28.0 size=       1KiB time=00:00:00.12 bitrate=  39.6kbits/s speed=0.12x elapsed=0:00:01.00    frame=   17 fps= 11 q=28.0 size=       1KiB time=00:00:00.60 bitrate=   7.9kbits/s speed=0.399x elapsed=0:00:01.50    frame=   31 fps= 15 q=28.0 size=       1KiB time=00:00:01.16 bitrate=   4.1kbits/s speed=0.579x elapsed=0:00:02.00    frame=   43 fps= 17 q=28.0 size=       1KiB time=00:00:01.64 bitrate=   2.9kbits/s speed=0.655x elapsed=0:00:02.50    frame=   56 fps= 19 q=28.0 size=       1KiB time=00:00:02.16 bitrate=   2.2kbits/s speed=0.719x elapsed=0:00:03.00    frame=   68 fps= 19 q=28.0 size=       1KiB time=00:00:02.64 bitrate=   1.8kbits/s speed=0.753x elapsed=0:00:03.50    frame=   81 fps= 20 q=28.0 size=       1KiB time=00:00:03.20 bitrate=   1.5kbits/s speed=0.799x elapsed=0:00:04.00    frame=   93 fps= 21 q=28.0 size=       1KiB time=00:00:03.64 bitrate=   1.3kbits/s speed=0.808x elapsed=0:00:04.50    frame=  106 fps= 21 q=28.0 size=       1KiB time=00:00:04.16 bitrate=   1.1kbits/s speed=0.831x elapsed=0:00:05.00    frame=  118 fps= 21 q=28.0 size=       1KiB time=00:00:04.64 bitrate=   1.0kbits/s speed=0.842x elapsed=0:00:05.50    frame=  131 fps= 22 q=28.0 size=     768KiB time=00:00:05.20 bitrate=1209.9kbits/s speed=0.865x elapsed=0:00:06.01    frame=  143 fps= 22 q=28.0 size=     768KiB time=00:00:05.64 bitrate=1115.5kbits/s speed=0.866x elapsed=0:00:06.51    frame=  156 fps= 22 q=28.0 size=     768KiB time=00:00:06.20 bitrate=1014.8kbits/s speed=0.884x elapsed=0:00:07.01    frame=  168 fps= 22 q=28.0 size=     768KiB time=00:00:06.68 bitrate= 941.8kbits/s speed=0.889x elapsed=0:00:07.51    frame=  181 fps= 23 q=28.0 size=     768KiB time=00:00:07.20 bitrate= 873.8kbits/s speed=0.899x elapsed=0:00:08.01    frame=  193 fps= 23 q=28.0 size=     768KiB time=00:00:07.68 bitrate= 819.2kbits/s speed=0.902x elapsed=0:00:08.51    frame=  206 fps= 23 q=28.0 size=     768KiB time=00:00:08.16 bitrate= 771.0kbits/s speed=0.905x elapsed=0:00:09.01    frame=  219 fps= 23 q=28.0 size=     768KiB time=00:00:08.72 bitrate= 721.5kbits/s speed=0.917x elapsed=0:00:09.51    frame=  231 fps= 23 q=28.0 size=     768KiB time=00:00:09.16 bitrate= 686.8kbits/s speed=0.915x elapsed=0:00:10.01    frame=  244 fps= 23 q=28.0 size=     768KiB time=00:00:09.72 bitrate= 647.3kbits/s speed=0.924x elapsed=0:00:10.51    frame=  255 fps= 23 q=28.0 size=    1792KiB time=00:00:10.16 bitrate=1444.9kbits/s speed=0.922x elapsed=0:00:11.01    frame=  269 fps= 23 q=28.0 size=    1792KiB time=00:00:10.72 bitrate=1369.4kbits/s speed=0.931x elapsed=0:00:11.51    frame=  281 fps= 23 q=28.0 size=    1792KiB time=00:00:11.20 bitrate=1310.7kbits/s speed=0.932x elapsed=0:00:12.01    frame=  294 fps= 23 q=28.0 size=    1792KiB time=00:00:11.68 bitrate=1256.9kbits/s speed=0.933x elapsed=0:00:12.52    frame=  306 fps= 23 q=28.0 size=    1792KiB time=00:00:12.16 bitrate=1207.2kbits/s speed=0.934x elapsed=0:00:13.02    frame=  319 fps= 24 q=28.0 size=    1792KiB time=00:00:12.68 bitrate=1157.7kbits/s speed=0.938x elapsed=0:00:13.52    frame=  331 fps= 24 q=28.0 size=    1792KiB time=00:00:13.16 bitrate=1115.5kbits/s speed=0.939x elapsed=0:00:14.02    frame=  344 fps= 24 q=28.0 size=    1792KiB time=00:00:13.72 bitrate=1070.0kbits/s speed=0.945x elapsed=0:00:14.52    frame=  356 fps= 24 q=28.0 size=    1792KiB time=00:00:14.20 bitrate=1033.8kbits/s speed=0.945x elapsed=0:00:15.02    frame=  369 fps= 24 q=28.0 size=    1792KiB time=00:00:14.72 bitrate= 997.3kbits/s speed=0.948x elapsed=0:00:15.52    frame=  381 fps= 24 q=28.0 size=    2304KiB time=00:00:15.16 bitrate=1245.0kbits/s speed=0.946x elapsed=0:00:16.02    frame=  394 fps= 24 q=28.0 size=    2304KiB time=00:00:15.68 bitrate=1203.7kbits/s speed=0.949x elapsed=0:00:16.52    frame=  406 fps= 24 q=28.0 size=    2304KiB time=00:00:16.20 bitrate=1165.1kbits/s speed=0.952x elapsed=0:00:17.02    frame=  419 fps= 24 q=28.0 size=    2304KiB time=00:00:16.68 bitrate=1131.6kbits/s speed=0.952x elapsed=0:00:17.52    frame=  431 fps= 24 q=28.0 size=    2304KiB time=00:00:17.16 bitrate=1099.9kbits/s speed=0.952x elapsed=0:00:18.02    frame=  444 fps= 24 q=28.0 size=    2304KiB time=00:00:17.72 bitrate=1065.1kbits/s speed=0.957x elapsed=0:00:18.52    frame=  456 fps= 24 q=28.0 size=    2304KiB time=00:00:18.20 bitrate=1037.1kbits/s speed=0.957x elapsed=0:00:19.02    frame=  469 fps= 24 q=28.0 size=    2304KiB time=00:00:18.72 bitrate=1008.2kbits/s speed=0.959x elapsed=0:00:19.52    frame=  481 fps= 24 q=28.0 size=    2304KiB time=00:00:19.20 bitrate= 983.0kbits/s speed=0.959x elapsed=0:00:20.02    frame=  494 fps= 24 q=28.0 size=    2304KiB time=00:00:19.72 bitrate= 957.1kbits/s speed=0.961x elapsed=0:00:20.52    frame=  506 fps= 24 q=28.0 size=    2304KiB time=00:00:20.20 bitrate= 934.4kbits/s speed=0.961x elapsed=0:00:21.02    frame=  519 fps= 24 q=28.0 size=    2304KiB time=00:00:20.72 bitrate= 910.9kbits/s speed=0.963x elapsed=0:00:21.52    frame=  532 fps= 24 q=28.0 size=    2304KiB time=00:00:21.24 bitrate= 888.6kbits/s speed=0.964x elapsed=0:00:22.02    frame=  544 fps= 24 q=28.0 size=    2304KiB time=00:00:21.72 bitrate= 869.0kbits/s speed=0.964x elapsed=0:00:22.52    frame=  556 fps= 24 q=28.0 size=    2304KiB time=00:00:22.20 bitrate= 850.2kbits/s speed=0.964x elapsed=0:00:23.02    frame=  569 fps= 24 q=28.0 size=    2304KiB time=00:00:22.72 bitrate= 830.7kbits/s speed=0.966x elapsed=0:00:23.52    frame=  581 fps= 24 q=28.0 size=    2304KiB time=00:00:23.16 bitrate= 815.0kbits/s speed=0.964x elapsed=0:00:24.02    frame=  594 fps= 24 q=28.0 size=    2304KiB time=00:00:23.72 bitrate= 795.7kbits/s speed=0.967x elapsed=0:00:24.52    frame=  606 fps= 24 q=28.0 size=    2304KiB time=00:00:24.20 bitrate= 779.9kbits/s speed=0.967x elapsed=0:00:25.03    frame=  619 fps= 24 q=28.0 size=    2304KiB time=00:00:24.68 bitrate= 764.8kbits/s speed=0.967x elapsed=0:00:25.53    frame=  632 fps= 24 q=28.0 size=    2816KiB time=00:00:25.24 bitrate= 914.0kbits/s speed=0.97x elapsed=0:00:26.03    frame=  644 fps= 24 q=28.0 size=    2816KiB time=00:00:25.68 bitrate= 898.3kbits/s speed=0.968x elapsed=0:00:26.53    frame=  657 fps= 24 q=28.0 size=    2816KiB time=00:00:26.24 bitrate= 879.1kbits/s speed=0.971x elapsed=0:00:27.03    frame=  669 fps= 24 q=28.0 size=    2816KiB time=00:00:26.72 bitrate= 863.3kbits/s speed=0.971x elapsed=0:00:27.53    frame=  682 fps= 24 q=28.0 size=    2816KiB time=00:00:27.24 bitrate= 846.9kbits/s speed=0.972x elapsed=0:00:28.03    frame=  694 fps= 24 q=28.0 size=    2816KiB time=00:00:27.72 bitrate= 832.2kbits/s speed=0.971x elapsed=0:00:28.53    frame=  707 fps= 24 q=28.0 size=    2816KiB time=00:00:28.24 bitrate= 816.9kbits/s speed=0.973x elapsed=0:00:29.03    frame=  719 fps= 24 q=28.0 size=    2816KiB time=00:00:28.68 bitrate= 804.3kbits/s speed=0.971x elapsed=0:00:29.53    frame=  731 fps= 24 q=28.0 size=    2816KiB time=00:00:29.16 bitrate= 791.1kbits/s speed=0.971x elapsed=0:00:30.03    frame=  744 fps= 24 q=28.0 size=    2816KiB time=00:00:29.72 bitrate= 776.2kbits/s speed=0.973x elapsed=0:00:30.53    frame=  756 fps= 24 q=28.0 size=    2816KiB time=00:00:30.20 bitrate= 763.9kbits/s speed=0.973x elapsed=0:00:31.03    frame=  769 fps= 24 q=28.0 size=    2816KiB time=00:00:30.68 bitrate= 751.9kbits/s speed=0.973x elapsed=0:00:31.53    frame=  781 fps= 24 q=28.0 size=    2816KiB time=00:00:31.16 bitrate= 740.3kbits/s speed=0.973x elapsed=0:00:32.03    frame=  794 fps= 24 q=28.0 size=    2816KiB time=00:00:31.68 bitrate= 728.2kbits/s speed=0.974x elapsed=0:00:32.53    frame=  807 fps= 24 q=28.0 size=    2816KiB time=00:00:32.20 bitrate= 716.4kbits/s speed=0.975x elapsed=0:00:33.03    frame=  819 fps= 24 q=28.0 size=    2816KiB time=00:00:32.72 bitrate= 705.0kbits/s speed=0.976x elapsed=0:00:33.53    frame=  832 fps= 24 q=28.0 size=    2816KiB time=00:00:33.24 bitrate= 694.0kbits/s speed=0.977x elapsed=0:00:34.03    frame=  844 fps= 24 q=28.0 size=    2816KiB time=00:00:33.72 bitrate= 684.1kbits/s speed=0.976x elapsed=0:00:34.53    frame=  856 fps= 24 q=28.0 size=    2816KiB time=00:00:34.16 bitrate= 675.3kbits/s speed=0.975x elapsed=0:00:35.03    frame=  869 fps= 24 q=28.0 size=    2816KiB time=00:00:34.68 bitrate= 665.2kbits/s speed=0.976x elapsed=0:00:35.53    frame=  882 fps= 24 q=28.0 size=    3328KiB time=00:00:35.20 bitrate= 774.5kbits/s speed=0.977x elapsed=0:00:36.03    frame=  894 fps= 24 q=28.0 size=    3328KiB time=00:00:35.68 bitrate= 764.1kbits/s speed=0.976x elapsed=0:00:36.53    frame=  907 fps= 24 q=28.0 size=    3328KiB time=00:00:36.20 bitrate= 753.1kbits/s speed=0.977x elapsed=0:00:37.03    frame=  919 fps= 24 q=28.0 size=    3328KiB time=00:00:36.72 bitrate= 742.5kbits/s speed=0.978x elapsed=0:00:37.53    frame=  932 fps= 24 q=28.0 size=    3328KiB time=00:00:37.20 bitrate= 732.9kbits/s speed=0.978x elapsed=0:00:38.04    frame=  944 fps= 24 q=28.0 size=    3328KiB time=00:00:37.72 bitrate= 722.8kbits/s speed=0.979x elapsed=0:00:38.54    frame=  956 fps= 24 q=28.0 size=    3328KiB time=00:00:38.16 bitrate= 714.4kbits/s speed=0.977x elapsed=0:00:39.04    frame=  969 fps= 25 q=28.0 size=    3328KiB time=00:00:38.72 bitrate= 704.1kbits/s speed=0.979x elapsed=0:00:39.54    frame=  981 fps= 24 q=28.0 size=    3328KiB time=00:00:39.16 bitrate= 696.2kbits/s speed=0.978x elapsed=0:00:40.04    frame=  994 fps= 25 q=28.0 size=    3328KiB time=00:00:39.72 bitrate= 686.4kbits/s speed=0.98x elapsed=0:00:40.54    frame= 1007 fps= 25 q=28.0 size=    3328KiB time=00:00:40.20 bitrate= 678.2kbits/s speed=0.979x elapsed=0:00:41.04    frame= 1019 fps= 25 q=28.0 size=    3328KiB time=00:00:40.72 bitrate= 669.5kbits/s speed=0.98x elapsed=0:00:41.54    frame= 1032 fps= 25 q=28.0 size=    3328KiB time=00:00:41.20 bitrate= 661.7kbits/s speed=0.98x elapsed=0:00:42.04    frame= 1044 fps= 25 q=28.0 size=    3328KiB time=00:00:41.68 bitrate= 654.1kbits/s speed=0.98x elapsed=0:00:42.54    frame= 1057 fps= 25 q=28.0 size=    3328KiB time=00:00:42.24 bitrate= 645.4kbits/s speed=0.981x elapsed=0:00:43.04    frame= 1069 fps= 25 q=28.0 size=    3328KiB time=00:00:42.68 bitrate= 638.8kbits/s speed=0.98x elapsed=0:00:43.54    frame= 1081 fps= 25 q=28.0 size=    3328KiB time=00:00:43.20 bitrate= 631.1kbits/s speed=0.981x elapsed=0:00:44.04    frame= 1094 fps= 25 q=28.0 size=    3328KiB time=00:00:43.72 bitrate= 623.6kbits/s speed=0.981x elapsed=0:00:44.54    frame= 1106 fps= 25 q=28.0 size=    3328KiB time=00:00:44.20 bitrate= 616.8kbits/s speed=0.981x elapsed=0:00:45.04    frame= 1119 fps= 25 q=28.0 size=    3328KiB time=00:00:44.68 bitrate= 610.2kbits/s speed=0.981x elapsed=0:00:45.54    frame= 1132 fps= 25 q=28.0 size=    3840KiB time=00:00:45.20 bitrate= 696.0kbits/s speed=0.982x elapsed=0:00:46.05    frame= 1145 fps= 25 q=28.0 size=    3840KiB time=00:00:45.76 bitrate= 687.4kbits/s speed=0.983x elapsed=0:00:46.55    frame= 1157 fps= 25 q=28.0 size=    3840KiB time=00:00:46.24 bitrate= 680.3kbits/s speed=0.983x elapsed=0:00:47.05    frame= 1169 fps= 25 q=28.0 size=    3840KiB time=00:00:46.72 bitrate= 673.3kbits/s speed=0.983x elapsed=0:00:47.55    frame= 1182 fps= 25 q=28.0 size=    3840KiB time=00:00:47.20 bitrate= 666.5kbits/s speed=0.982x elapsed=0:00:48.05    frame= 1194 fps= 25 q=28.0 size=    3840KiB time=00:00:47.68 bitrate= 659.8kbits/s speed=0.982x elapsed=0:00:48.55    frame= 1207 fps= 25 q=28.0 size=    3840KiB time=00:00:48.24 bitrate= 652.1kbits/s speed=0.983x elapsed=0:00:49.05    frame= 1220 fps= 25 q=28.0 size=    3840KiB time=00:00:48.76 bitrate= 645.1kbits/s speed=0.984x elapsed=0:00:49.55    frame= 1232 fps= 25 q=28.0 size=    3840KiB time=00:00:49.24 bitrate= 638.9kbits/s speed=0.984x elapsed=0:00:50.05    frame= 1244 fps= 25 q=28.0 size=    3840KiB time=00:00:49.72 bitrate= 632.7kbits/s speed=0.984x elapsed=0:00:50.55    frame= 1256 fps= 25 q=28.0 size=    3840KiB time=00:00:50.20 bitrate= 626.6kbits/s speed=0.983x elapsed=0:00:51.05    frame= 1269 fps= 25 q=28.0 size=    3840KiB time=00:00:50.72 bitrate= 620.2kbits/s speed=0.984x elapsed=0:00:51.55    frame= 1282 fps= 25 q=28.0 size=    3840KiB time=00:00:51.20 bitrate= 614.4kbits/s speed=0.984x elapsed=0:00:52.05    frame= 1294 fps= 25 q=28.0 size=    3840KiB time=00:00:51.72 bitrate= 608.2kbits/s speed=0.984x elapsed=0:00:52.55    frame= 1307 fps= 25 q=28.0 size=    3840KiB time=00:00:52.24 bitrate= 602.2kbits/s speed=0.985x elapsed=0:00:53.05    frame= 1320 fps= 25 q=28.0 size=    3840KiB time=00:00:52.76 bitrate= 596.2kbits/s speed=0.985x elapsed=0:00:53.55    frame= 1332 fps= 25 q=28.0 size=    3840KiB time=00:00:53.24 bitrate= 590.9kbits/s speed=0.985x elapsed=0:00:54.05    frame= 1344 fps= 25 q=28.0 size=    3840KiB time=00:00:53.72 bitrate= 585.6kbits/s speed=0.985x elapsed=0:00:54.55    frame= 1357 fps= 25 q=28.0 size=    3840KiB time=00:00:54.24 bitrate= 580.0kbits/s speed=0.985x elapsed=0:00:55.05    frame= 1369 fps= 25 q=28.0 size=    3840KiB time=00:00:54.68 bitrate= 575.3kbits/s speed=0.984x elapsed=0:00:55.55    frame= 1382 fps= 25 q=28.0 size=    4096KiB time=00:00:55.24 bitrate= 607.4kbits/s speed=0.985x elapsed=0:00:56.05    frame= 1395 fps= 25 q=28.0 size=    4096KiB time=00:00:55.76 bitrate= 601.8kbits/s speed=0.986x elapsed=0:00:56.55    frame= 1407 fps= 25 q=28.0 size=    4096KiB time=00:00:56.20 bitrate= 597.1kbits/s speed=0.985x elapsed=0:00:57.05    frame= 1418 fps= 25 q=28.0 size=    4096KiB time=00:00:56.64 bitrate= 592.4kbits/s speed=0.984x elapsed=0:00:57.55    frame= 1432 fps= 25 q=28.0 size=    4096KiB time=00:00:57.24 bitrate= 586.2kbits/s speed=0.986x elapsed=0:00:58.05    frame= 1445 fps= 25 q=28.0 size=    4096KiB time=00:00:57.72 bitrate= 581.3kbits/s speed=0.986x elapsed=0:00:58.55    frame= 1457 fps= 25 q=28.0 size=    4096KiB time=00:00:58.24 bitrate= 576.1kbits/s speed=0.986x elapsed=0:00:59.05    frame= 1469 fps= 25 q=28.0 size=    4096KiB time=00:00:58.72 bitrate= 571.4kbits/s speed=0.986x elapsed=0:00:59.55    frame= 1482 fps= 25 q=28.0 size=    4096KiB time=00:00:59.20 bitrate= 566.8kbits/s speed=0.986x elapsed=0:01:00.05    frame= 1495 fps= 25 q=28.0 size=    4096KiB time=00:00:59.76 bitrate= 561.5kbits/s speed=0.987x elapsed=0:01:00.56    frame= 1507 fps= 25 q=28.0 size=    4352KiB time=00:01:00.20 bitrate= 592.2kbits/s speed=0.986x elapsed=0:01:01.06    frame= 1520 fps= 25 q=28.0 size=    4352KiB time=00:01:00.72 bitrate= 587.1kbits/s speed=0.986x elapsed=0:01:01.56    frame= 1532 fps= 25 q=28.0 size=    4352KiB time=00:01:01.24 bitrate= 582.2kbits/s speed=0.987x elapsed=0:01:02.06    frame= 1545 fps= 25 q=28.0 size=    4352KiB time=00:01:01.72 bitrate= 577.6kbits/s speed=0.986x elapsed=0:01:02.56    frame= 1557 fps= 25 q=28.0 size=    4352KiB time=00:01:02.24 bitrate= 572.8kbits/s speed=0.987x elapsed=0:01:03.06    frame= 1570 fps= 25 q=28.0 size=    4352KiB time=00:01:02.76 bitrate= 568.1kbits/s speed=0.987x elapsed=0:01:03.56    frame= 1582 fps= 25 q=28.0 size=    4352KiB time=00:01:03.20 bitrate= 564.1kbits/s speed=0.986x elapsed=0:01:04.06    frame= 1595 fps= 25 q=28.0 size=    4352KiB time=00:01:03.76 bitrate= 559.2kbits/s speed=0.988x elapsed=0:01:04.56    frame= 1607 fps= 25 q=28.0 size=    4352KiB time=00:01:04.24 bitrate= 555.0kbits/s speed=0.987x elapsed=0:01:05.06    frame= 1620 fps= 25 q=28.0 size=    4352KiB time=00:01:04.72 bitrate= 550.9kbits/s speed=0.987x elapsed=0:01:05.56    frame= 1632 fps= 25 q=28.0 size=    4608KiB time=00:01:05.24 bitrate= 578.6kbits/s speed=0.987x elapsed=0:01:06.06    frame= 1645 fps= 25 q=28.0 size=    4608KiB time=00:01:05.72 bitrate= 574.4kbits/s speed=0.987x elapsed=0:01:06.56    frame= 1657 fps= 25 q=28.0 size=    4608KiB time=00:01:06.24 bitrate= 569.9kbits/s speed=0.988x elapsed=0:01:07.07    frame= 1670 fps= 25 q=28.0 size=    4608KiB time=00:01:06.76 bitrate= 565.4kbits/s speed=0.988x elapsed=0:01:07.57    frame= 1682 fps= 25 q=28.0 size=    4608KiB time=00:01:07.24 bitrate= 561.4kbits/s speed=0.988x elapsed=0:01:08.07    frame= 1695 fps= 25 q=28.0 size=    4608KiB time=00:01:07.72 bitrate= 557.4kbits/s speed=0.988x elapsed=0:01:08.57    frame= 1708 fps= 25 q=28.0 size=    4608KiB time=00:01:08.28 bitrate= 552.9kbits/s speed=0.989x elapsed=0:01:09.07    frame= 1720 fps= 25 q=28.0 size=    4608KiB time=00:01:08.76 bitrate= 549.0kbits/s speed=0.988x elapsed=0:01:09.57    frame= 1733 fps= 25 q=28.0 size=    4608KiB time=00:01:09.28 bitrate= 544.9kbits/s speed=0.989x elapsed=0:01:10.07    frame= 1745 fps= 25 q=28.0 size=    4608KiB time=00:01:09.76 bitrate= 541.1kbits/s speed=0.988x elapsed=0:01:10.57    frame= 1758 fps= 25 q=28.0 size=    4608KiB time=00:01:10.28 bitrate= 537.1kbits/s speed=0.989x elapsed=0:01:11.07    frame= 1770 fps= 25 q=28.0 size=    4608KiB time=00:01:10.76 bitrate= 533.5kbits/s speed=0.989x elapsed=0:01:11.57    frame= 1783 fps= 25 q=28.0 size=    4608KiB time=00:01:11.28 bitrate= 529.6kbits/s speed=0.989x elapsed=0:01:12.07    frame= 1795 fps= 25 q=28.0 size=    4608KiB time=00:01:11.76 bitrate= 526.0kbits/s speed=0.989x elapsed=0:01:12.57    frame= 1808 fps= 25 q=28.0 size=    4608KiB time=00:01:12.28 bitrate= 522.3kbits/s speed=0.989x elapsed=0:01:13.07    frame= 1820 fps= 25 q=28.0 size=    4608KiB time=00:01:12.76 bitrate= 518.8kbits/s speed=0.989x elapsed=0:01:13.57    frame= 1833 fps= 25 q=28.0 size=    4608KiB time=00:01:13.28 bitrate= 515.1kbits/s speed=0.989x elapsed=0:01:14.07    frame= 1845 fps= 25 q=28.0 size=    4608KiB time=00:01:13.76 bitrate= 511.8kbits/s speed=0.989x elapsed=0:01:14.57    frame= 1858 fps= 25 q=28.0 size=    4608KiB time=00:01:14.28 bitrate= 508.2kbits/s speed=0.989x elapsed=0:01:15.07    frame= 1870 fps= 25 q=28.0 size=    4608KiB time=00:01:14.76 bitrate= 504.9kbits/s speed=0.989x elapsed=0:01:15.57    frame= 1883 fps= 25 q=28.0 size=    4864KiB time=00:01:15.28 bitrate= 529.3kbits/s speed=0.989x elapsed=0:01:16.07    frame= 1895 fps= 25 q=28.0 size=    4864KiB time=00:01:15.76 bitrate= 525.9kbits/s speed=0.989x elapsed=0:01:16.57    frame= 1908 fps= 25 q=28.0 size=    4864KiB time=00:01:16.28 bitrate= 522.4kbits/s speed=0.99x elapsed=0:01:17.07    frame= 1920 fps= 25 q=28.0 size=    4864KiB time=00:01:16.72 bitrate= 519.4kbits/s speed=0.989x elapsed=0:01:17.58    frame= 1933 fps= 25 q=28.0 size=    4864KiB time=00:01:17.28 bitrate= 515.6kbits/s speed=0.99x elapsed=0:01:18.08    frame= 1945 fps= 25 q=28.0 size=    4864KiB time=00:01:17.76 bitrate= 512.4kbits/s speed=0.99x elapsed=0:01:18.58    frame= 1958 fps= 25 q=28.0 size=    4864KiB time=00:01:18.28 bitrate= 509.0kbits/s speed=0.99x elapsed=0:01:19.08    frame= 1970 fps= 25 q=28.0 size=    4864KiB time=00:01:18.72 bitrate= 506.2kbits/s speed=0.989x elapsed=0:01:19.58    frame= 1983 fps= 25 q=28.0 size=    4864KiB time=00:01:19.24 bitrate= 502.9kbits/s speed=0.989x elapsed=0:01:20.08    frame= 1995 fps= 25 q=28.0 size=    4864KiB time=00:01:19.76 bitrate= 499.6kbits/s speed=0.99x elapsed=0:01:20.58    frame= 2008 fps= 25 q=28.0 size=    5120KiB time=00:01:20.28 bitrate= 522.5kbits/s speed=0.99x elapsed=0:01:21.08    frame= 2020 fps= 25 q=28.0 size=    5120KiB time=00:01:20.72 bitrate= 519.6kbits/s speed=0.989x elapsed=0:01:21.58    frame= 2033 fps= 25 q=28.0 size=    5120KiB time=00:01:21.28 bitrate= 516.0kbits/s speed=0.99x elapsed=0:01:22.08    frame= 2045 fps= 25 q=28.0 size=    5120KiB time=00:01:21.76 bitrate= 513.0kbits/s speed=0.99x elapsed=0:01:22.58    frame= 2058 fps= 25 q=28.0 size=    5120KiB time=00:01:22.24 bitrate= 510.0kbits/s speed=0.99x elapsed=0:01:23.08    frame= 2070 fps= 25 q=28.0 size=    5120KiB time=00:01:22.72 bitrate= 507.0kbits/s speed=0.99x elapsed=0:01:23.58    frame= 2083 fps= 25 q=28.0 size=    5120KiB time=00:01:23.24 bitrate= 503.9kbits/s speed=0.99x elapsed=0:01:24.08    frame= 2095 fps= 25 q=28.0 size=    5120KiB time=00:01:23.76 bitrate= 500.8kbits/s speed=0.99x elapsed=0:01:24.58    frame= 2108 fps= 25 q=28.0 size=    5120KiB time=00:01:24.24 bitrate= 497.9kbits/s speed=0.99x elapsed=0:01:25.08    frame= 2120 fps= 25 q=28.0 size=    5120KiB time=00:01:24.76 bitrate= 494.8kbits/s speed=0.99x elapsed=0:01:25.58    frame= 2133 fps= 25 q=28.0 size=    5376KiB time=00:01:25.28 bitrate= 516.4kbits/s speed=0.991x elapsed=0:01:26.08    frame= 2145 fps= 25 q=28.0 size=    5376KiB time=00:01:25.72 bitrate= 513.8kbits/s speed=0.99x elapsed=0:01:26.58    frame= 2158 fps= 25 q=28.0 size=    5376KiB time=00:01:26.24 bitrate= 510.7kbits/s speed=0.99x elapsed=0:01:27.08    frame= 2171 fps= 25 q=28.0 size=    5376KiB time=00:01:26.80 bitrate= 507.4kbits/s speed=0.991x elapsed=0:01:27.59    frame= 2183 fps= 25 q=28.0 size=    5376KiB time=00:01:27.24 bitrate= 504.8kbits/s speed=0.99x elapsed=0:01:28.09    frame= 2195 fps= 25 q=28.0 size=    5376KiB time=00:01:27.76 bitrate= 501.8kbits/s speed=0.991x elapsed=0:01:28.59    frame= 2208 fps= 25 q=28.0 size=    5376KiB time=00:01:28.24 bitrate= 499.1kbits/s speed=0.99x elapsed=0:01:29.09    frame= 2220 fps= 25 q=28.0 size=    5376KiB time=00:01:28.76 bitrate= 496.2kbits/s speed=0.991x elapsed=0:01:29.59    frame= 2233 fps= 25 q=28.0 size=    5376KiB time=00:01:29.24 bitrate= 493.5kbits/s speed=0.991x elapsed=0:01:30.09    frame= 2245 fps= 25 q=28.0 size=    5376KiB time=00:01:29.72 bitrate= 490.9kbits/s speed=0.99x elapsed=0:01:30.59    frame= 2258 fps= 25 q=28.0 size=    5376KiB time=00:01:30.24 bitrate= 488.0kbits/s speed=0.991x elapsed=0:01:31.09    frame= 2270 fps= 25 q=28.0 size=    5376KiB time=00:01:30.76 bitrate= 485.2kbits/s speed=0.991x elapsed=0:01:31.59    frame= 2283 fps= 25 q=28.0 size=    5376KiB time=00:01:31.24 bitrate= 482.7kbits/s speed=0.991x elapsed=0:01:32.09    frame= 2296 fps= 25 q=28.0 size=    5376KiB time=00:01:31.76 bitrate= 479.9kbits/s speed=0.991x elapsed=0:01:32.59    frame= 2308 fps= 25 q=28.0 size=    5376KiB time=00:01:32.28 bitrate= 477.2kbits/s speed=0.991x elapsed=0:01:33.09    frame= 2321 fps= 25 q=28.0 size=    5376KiB time=00:01:32.80 bitrate= 474.6kbits/s speed=0.991x elapsed=0:01:33.59    frame= 2333 fps= 25 q=28.0 size=    5376KiB time=00:01:33.28 bitrate= 472.1kbits/s speed=0.991x elapsed=0:01:34.09    frame= 2345 fps= 25 q=28.0 size=    5376KiB time=00:01:33.72 bitrate= 469.9kbits/s speed=0.991x elapsed=0:01:34.59    frame= 2358 fps= 25 q=28.0 size=    5376KiB time=00:01:34.24 bitrate= 467.3kbits/s speed=0.991x elapsed=0:01:35.09    frame= 2370 fps= 25 q=28.0 size=    5376KiB time=00:01:34.76 bitrate= 464.8kbits/s speed=0.991x elapsed=0:01:35.59    frame= 2383 fps= 25 q=28.0 size=    5632KiB time=00:01:35.28 bitrate= 484.2kbits/s speed=0.991x elapsed=0:01:36.09    frame= 2395 fps= 25 q=28.0 size=    5632KiB time=00:01:35.76 bitrate= 481.8kbits/s speed=0.991x elapsed=0:01:36.59    frame= 2408 fps= 25 q=28.0 size=    5632KiB time=00:01:36.28 bitrate= 479.2kbits/s speed=0.992x elapsed=0:01:37.09    frame= 2421 fps= 25 q=28.0 size=    5632KiB time=00:01:36.76 bitrate= 476.8kbits/s speed=0.991x elapsed=0:01:37.59    frame= 2433 fps= 25 q=28.0 size=    5632KiB time=00:01:37.24 bitrate= 474.5kbits/s speed=0.991x elapsed=0:01:38.09    frame= 2446 fps= 25 q=28.0 size=    5632KiB time=00:01:37.80 bitrate= 471.8kbits/s speed=0.992x elapsed=0:01:38.59    frame= 2458 fps= 25 q=28.0 size=    5632KiB time=00:01:38.24 bitrate= 469.6kbits/s speed=0.991x elapsed=0:01:39.09    frame= 2471 fps= 25 q=28.0 size=    5632KiB time=00:01:38.80 bitrate= 467.0kbits/s speed=0.992x elapsed=0:01:39.59    frame= 2483 fps= 25 q=28.0 size=    5632KiB time=00:01:39.28 bitrate= 464.7kbits/s speed=0.992x elapsed=0:01:40.10    frame= 2494 fps= 25 q=28.0 size=    5632KiB time=00:01:39.72 bitrate= 462.7kbits/s speed=0.991x elapsed=0:01:40.60    frame= 2508 fps= 25 q=28.0 size=    5888KiB time=00:01:40.24 bitrate= 481.2kbits/s speed=0.991x elapsed=0:01:41.10    frame= 2520 fps= 25 q=28.0 size=    5888KiB time=00:01:40.76 bitrate= 478.7kbits/s speed=0.992x elapsed=0:01:41.60    frame= 2533 fps= 25 q=28.0 size=    5888KiB time=00:01:41.24 bitrate= 476.4kbits/s speed=0.992x elapsed=0:01:42.10    frame= 2546 fps= 25 q=28.0 size=    5888KiB time=00:01:41.76 bitrate= 474.0kbits/s speed=0.992x elapsed=0:01:42.60    frame= 2558 fps= 25 q=28.0 size=    5888KiB time=00:01:42.24 bitrate= 471.8kbits/s speed=0.992x elapsed=0:01:43.10    frame= 2571 fps= 25 q=28.0 size=    5888KiB time=00:01:42.76 bitrate= 469.4kbits/s speed=0.992x elapsed=0:01:43.60    frame= 2582 fps= 25 q=28.0 size=    5888KiB time=00:01:43.24 bitrate= 467.2kbits/s speed=0.992x elapsed=0:01:44.10    frame= 2596 fps= 25 q=28.0 size=    5888KiB time=00:01:43.80 bitrate= 464.7kbits/s speed=0.992x elapsed=0:01:44.60    frame= 2608 fps= 25 q=28.0 size=    5888KiB time=00:01:44.28 bitrate= 462.5kbits/s speed=0.992x elapsed=0:01:45.10    frame= 2621 fps= 25 q=28.0 size=    5888KiB time=00:01:44.80 bitrate= 460.3kbits/s speed=0.992x elapsed=0:01:45.60    frame= 2633 fps= 25 q=28.0 size=    6144KiB time=00:01:45.24 bitrate= 478.3kbits/s speed=0.992x elapsed=0:01:46.10    frame= 2645 fps= 25 q=28.0 size=    6144KiB time=00:01:45.72 bitrate= 476.1kbits/s speed=0.992x elapsed=0:01:46.60    frame= 2658 fps= 25 q=28.0 size=    6144KiB time=00:01:46.28 bitrate= 473.6kbits/s speed=0.992x elapsed=0:01:47.10    frame= 2671 fps= 25 q=28.0 size=    6144KiB time=00:01:46.76 bitrate= 471.4kbits/s speed=0.992x elapsed=0:01:47.60    frame= 2683 fps= 25 q=28.0 size=    6144KiB time=00:01:47.32 bitrate= 469.0kbits/s speed=0.993x elapsed=0:01:48.11    frame= 2695 fps= 25 q=28.0 size=    6144KiB time=00:01:47.76 bitrate= 467.1kbits/s speed=0.992x elapsed=0:01:48.61    frame= 2708 fps= 25 q=28.0 size=    6144KiB time=00:01:48.28 bitrate= 464.8kbits/s speed=0.992x elapsed=0:01:49.11    frame= 2721 fps= 25 q=28.0 size=    6144KiB time=00:01:48.80 bitrate= 462.6kbits/s speed=0.993x elapsed=0:01:49.61    frame= 2733 fps= 25 q=28.0 size=    6144KiB time=00:01:49.28 bitrate= 460.6kbits/s speed=0.992x elapsed=0:01:50.11    frame= 2746 fps= 25 q=25.0 size=    6144KiB time=00:01:49.80 bitrate= 458.4kbits/s speed=0.993x elapsed=0:01:50.61    frame= 2758 fps= 25 q=28.0 size=    6400KiB time=00:01:50.28 bitrate= 475.4kbits/s speed=0.993x elapsed=0:01:51.11    frame= 2771 fps= 25 q=28.0 size=    6400KiB time=00:01:50.76 bitrate= 473.4kbits/s speed=0.992x elapsed=0:01:51.61    frame= 2784 fps= 25 q=28.0 size=    6400KiB time=00:01:51.28 bitrate= 471.1kbits/s speed=0.993x elapsed=0:01:52.11    frame= 2795 fps= 25 q=28.0 size=    6400KiB time=00:01:51.76 bitrate= 469.1kbits/s speed=0.992x elapsed=0:01:52.61    frame= 2809 fps= 25 q=28.0 size=    6400KiB time=00:01:52.32 bitrate= 466.8kbits/s speed=0.993x elapsed=0:01:53.11    frame= 2821 fps= 25 q=28.0 size=    6400KiB time=00:01:52.80 bitrate= 464.8kbits/s speed=0.993x elapsed=0:01:53.61    frame= 2834 fps= 25 q=28.0 size=    6400KiB time=00:01:53.32 bitrate= 462.7kbits/s speed=0.993x elapsed=0:01:54.11    frame= 2846 fps= 25 q=28.0 size=    6400KiB time=00:01:53.80 bitrate= 460.7kbits/s speed=0.993x elapsed=0:01:54.61    frame= 2859 fps= 25 q=28.0 size=    6400KiB time=00:01:54.32 bitrate= 458.6kbits/s speed=0.993x elapsed=0:01:55.11    frame= 2871 fps= 25 q=28.0 size=    6400KiB time=00:01:54.80 bitrate= 456.7kbits/s speed=0.993x elapsed=0:01:55.61    frame= 2883 fps= 25 q=28.0 size=    6656KiB time=00:01:55.24 bitrate= 473.2kbits/s speed=0.992x elapsed=0:01:56.11    frame= 2896 fps= 25 q=28.0 size=    6656KiB time=00:01:55.76 bitrate= 471.0kbits/s speed=0.993x elapsed=0:01:56.61    frame= 2909 fps= 25 q=28.0 size=    6656KiB time=00:01:56.32 bitrate= 468.8kbits/s speed=0.993x elapsed=0:01:57.11    frame= 2921 fps= 25 q=28.0 size=    6656KiB time=00:01:56.76 bitrate= 467.0kbits/s speed=0.993x elapsed=0:01:57.61    frame= 2933 fps= 25 q=28.0 size=    6656KiB time=00:01:57.28 bitrate= 464.9kbits/s speed=0.993x elapsed=0:01:58.11    frame= 2946 fps= 25 q=28.0 size=    6656KiB time=00:01:57.80 bitrate= 462.9kbits/s speed=0.993x elapsed=0:01:58.62    frame= 2959 fps= 25 q=28.0 size=    6656KiB time=00:01:58.28 bitrate= 461.0kbits/s speed=0.993x elapsed=0:01:59.12    frame= 2970 fps= 25 q=28.0 size=    6656KiB time=00:01:58.72 bitrate= 459.3kbits/s speed=0.992x elapsed=0:01:59.62    frame= 2984 fps= 25 q=28.0 size=    6656KiB time=00:01:59.28 bitrate= 457.1kbits/s speed=0.993x elapsed=0:02:00.12    frame= 2996 fps= 25 q=25.0 size=    6656KiB time=00:01:59.80 bitrate= 455.1kbits/s speed=0.993x elapsed=0:02:00.62    frame= 3009 fps= 25 q=28.0 size=    6912KiB time=00:02:00.32 bitrate= 470.6kbits/s speed=0.993x elapsed=0:02:01.12    frame= 3021 fps= 25 q=28.0 size=    6912KiB time=00:02:00.76 bitrate= 468.9kbits/s speed=0.993x elapsed=0:02:01.62    frame= 3033 fps= 25 q=28.0 size=    6912KiB time=00:02:01.28 bitrate= 466.9kbits/s speed=0.993x elapsed=0:02:02.12    frame= 3046 fps= 25 q=28.0 size=    6912KiB time=00:02:01.80 bitrate= 464.9kbits/s speed=0.993x elapsed=0:02:02.63    frame= 3059 fps= 25 q=28.0 size=    6912KiB time=00:02:02.28 bitrate= 463.1kbits/s speed=0.993x elapsed=0:02:03.13    frame= 3072 fps= 25 q=28.0 size=    6912KiB time=00:02:02.84 bitrate= 461.0kbits/s speed=0.994x elapsed=0:02:03.63    frame= 3084 fps= 25 q=28.0 size=    6912KiB time=00:02:03.32 bitrate= 459.2kbits/s speed=0.993x elapsed=0:02:04.13    frame= 3096 fps= 25 q=28.0 size=    6912KiB time=00:02:03.80 bitrate= 457.4kbits/s speed=0.993x elapsed=0:02:04.63    frame= 3109 fps= 25 q=28.0 size=    6912KiB time=00:02:04.28 bitrate= 455.6kbits/s speed=0.993x elapsed=0:02:05.13    frame= 3122 fps= 25 q=28.0 size=    6912KiB time=00:02:04.80 bitrate= 453.7kbits/s speed=0.993x elapsed=0:02:05.63    frame= 3134 fps= 25 q=28.0 size=    7168KiB time=00:02:05.32 bitrate= 468.6kbits/s speed=0.993x elapsed=0:02:06.14    frame= 3147 fps= 25 q=28.0 size=    7168KiB time=00:02:05.84 bitrate= 466.6kbits/s speed=0.994x elapsed=0:02:06.64    frame= 3159 fps= 25 q=28.0 size=    7168KiB time=00:02:06.32 bitrate= 464.9kbits/s speed=0.994x elapsed=0:02:07.14    frame= 3172 fps= 25 q=28.0 size=    7168KiB time=00:02:06.84 bitrate= 462.9kbits/s speed=0.994x elapsed=0:02:07.64    frame= 3184 fps= 25 q=28.0 size=    7168KiB time=00:02:07.28 bitrate= 461.3kbits/s speed=0.993x elapsed=0:02:08.14    frame= 3196 fps= 25 q=28.0 size=    7168KiB time=00:02:07.80 bitrate= 459.5kbits/s speed=0.993x elapsed=0:02:08.64    frame= 3209 fps= 25 q=28.0 size=    7168KiB time=00:02:08.28 bitrate= 457.8kbits/s speed=0.993x elapsed=0:02:09.14    frame= 3222 fps= 25 q=28.0 size=    7168KiB time=00:02:08.84 bitrate= 455.8kbits/s speed=0.994x elapsed=0:02:09.64    frame= 3234 fps= 25 q=28.0 size=    7168KiB time=00:02:09.32 bitrate= 454.1kbits/s speed=0.994x elapsed=0:02:10.14    frame= 3247 fps= 25 q=28.0 size=    7168KiB time=00:02:09.80 bitrate= 452.4kbits/s speed=0.994x elapsed=0:02:10.64    frame= 3259 fps= 25 q=28.0 size=    7168KiB time=00:02:10.28 bitrate= 450.7kbits/s speed=0.993x elapsed=0:02:11.14    frame= 3272 fps= 25 q=28.0 size=    7168KiB time=00:02:10.80 bitrate= 448.9kbits/s speed=0.994x elapsed=0:02:11.64    frame= 3284 fps= 25 q=28.0 size=    7168KiB time=00:02:11.32 bitrate= 447.2kbits/s speed=0.994x elapsed=0:02:12.14    frame= 3297 fps= 25 q=28.0 size=    7168KiB time=00:02:11.84 bitrate= 445.4kbits/s speed=0.994x elapsed=0:02:12.64    frame= 3309 fps= 25 q=28.0 size=    7168KiB time=00:02:12.28 bitrate= 443.9kbits/s speed=0.993x elapsed=0:02:13.14    frame= 3322 fps= 25 q=28.0 size=    7168KiB time=00:02:12.84 bitrate= 442.0kbits/s speed=0.994x elapsed=0:02:13.64    frame= 3334 fps= 25 q=28.0 size=    7168KiB time=00:02:13.32 bitrate= 440.4kbits/s speed=0.994x elapsed=0:02:14.14    frame= 3347 fps= 25 q=28.0 size=    7168KiB time=00:02:13.84 bitrate= 438.7kbits/s speed=0.994x elapsed=0:02:14.64    frame= 3359 fps= 25 q=28.0 size=    7168KiB time=00:02:14.28 bitrate= 437.3kbits/s speed=0.994x elapsed=0:02:15.14    frame= 3372 fps= 25 q=28.0 size=    7168KiB time=00:02:14.80 bitrate= 435.6kbits/s speed=0.994x elapsed=0:02:15.64    frame= 3384 fps= 25 q=28.0 size=    7424KiB time=00:02:15.32 bitrate= 449.4kbits/s speed=0.994x elapsed=0:02:16.14    frame= 3397 fps= 25 q=28.0 size=    7424KiB time=00:02:15.80 bitrate= 447.8kbits/s speed=0.994x elapsed=0:02:16.64    frame= 3409 fps= 25 q=28.0 size=    7424KiB time=00:02:16.32 bitrate= 446.1kbits/s speed=0.994x elapsed=0:02:17.14    frame= 3422 fps= 25 q=28.0 size=    7424KiB time=00:02:16.84 bitrate= 444.4kbits/s speed=0.994x elapsed=0:02:17.64    frame= 3434 fps= 25 q=28.0 size=    7424KiB time=00:02:17.28 bitrate= 443.0kbits/s speed=0.994x elapsed=0:02:18.14    frame= 3447 fps= 25 q=28.0 size=    7424KiB time=00:02:17.84 bitrate= 441.2kbits/s speed=0.994x elapsed=0:02:18.64    frame= 3459 fps= 25 q=28.0 size=    7424KiB time=00:02:18.32 bitrate= 439.7kbits/s speed=0.994x elapsed=0:02:19.14    frame= 3471 fps= 25 q=28.0 size=    7424KiB time=00:02:18.80 bitrate= 438.2kbits/s speed=0.994x elapsed=0:02:19.64    frame= 3484 fps= 25 q=28.0 size=    7424KiB time=00:02:19.32 bitrate= 436.5kbits/s speed=0.994x elapsed=0:02:20.14    frame= 3497 fps= 25 q=28.0 size=    7424KiB time=00:02:19.80 bitrate= 435.0kbits/s speed=0.994x elapsed=0:02:20.65    frame= 3510 fps= 25 q=28.0 size=    7680KiB time=00:02:20.32 bitrate= 448.4kbits/s speed=0.994x elapsed=0:02:21.15    frame= 3522 fps= 25 q=28.0 size=    7680KiB time=00:02:20.84 bitrate= 446.7kbits/s speed=0.994x elapsed=0:02:21.65    frame= 3534 fps= 25 q=28.0 size=    7680KiB time=00:02:21.32 bitrate= 445.2kbits/s speed=0.994x elapsed=0:02:22.15    frame= 3547 fps= 25 q=28.0 size=    7680KiB time=00:02:21.80 bitrate= 443.7kbits/s speed=0.994x elapsed=0:02:22.65    frame= 3560 fps= 25 q=28.0 size=    7680KiB time=00:02:22.32 bitrate= 442.1kbits/s speed=0.994x elapsed=0:02:23.15    frame= 3571 fps= 25 q=28.0 size=    7680KiB time=00:02:22.80 bitrate= 440.6kbits/s speed=0.994x elapsed=0:02:23.65    frame= 3584 fps= 25 q=28.0 size=    7680KiB time=00:02:23.32 bitrate= 439.0kbits/s speed=0.994x elapsed=0:02:24.15    frame= 3597 fps= 25 q=28.0 size=    7680KiB time=00:02:23.80 bitrate= 437.5kbits/s speed=0.994x elapsed=0:02:24.65    frame= 3610 fps= 25 q=28.0 size=    7680KiB time=00:02:24.36 bitrate= 435.8kbits/s speed=0.995x elapsed=0:02:25.15    frame= 3622 fps= 25 q=28.0 size=    7680KiB time=00:02:24.80 bitrate= 434.5kbits/s speed=0.994x elapsed=0:02:25.65    frame= 3635 fps= 25 q=28.0 size=    8192KiB time=00:02:25.36 bitrate= 461.7kbits/s speed=0.995x elapsed=0:02:26.15    frame= 3647 fps= 25 q=28.0 size=    8192KiB time=00:02:25.84 bitrate= 460.2kbits/s speed=0.994x elapsed=0:02:26.65    frame= 3660 fps= 25 q=28.0 size=    8192KiB time=00:02:26.32 bitrate= 458.6kbits/s speed=0.994x elapsed=0:02:27.15    frame= 3672 fps= 25 q=28.0 size=    8192KiB time=00:02:26.84 bitrate= 457.0kbits/s speed=0.994x elapsed=0:02:27.65    frame= 3685 fps= 25 q=28.0 size=    8192KiB time=00:02:27.36 bitrate= 455.4kbits/s speed=0.995x elapsed=0:02:28.16    frame= 3697 fps= 25 q=28.0 size=    8192KiB time=00:02:27.84 bitrate= 453.9kbits/s speed=0.994x elapsed=0:02:28.66    frame= 3709 fps= 25 q=28.0 size=    8192KiB time=00:02:28.32 bitrate= 452.5kbits/s speed=0.994x elapsed=0:02:29.16    frame= 3722 fps= 25 q=28.0 size=    8192KiB time=00:02:28.84 bitrate= 450.9kbits/s speed=0.995x elapsed=0:02:29.66    frame= 3735 fps= 25 q=28.0 size=    8192KiB time=00:02:29.32 bitrate= 449.4kbits/s speed=0.994x elapsed=0:02:30.16    frame= 3747 fps= 25 q=28.0 size=    8192KiB time=00:02:29.80 bitrate= 448.0kbits/s speed=0.994x elapsed=0:02:30.66    frame= 3760 fps= 25 q=28.0 size=    8448KiB time=00:02:30.32 bitrate= 460.4kbits/s speed=0.994x elapsed=0:02:31.16    frame= 3772 fps= 25 q=28.0 size=    8448KiB time=00:02:30.84 bitrate= 458.8kbits/s speed=0.995x elapsed=0:02:31.66    frame= 3785 fps= 25 q=28.0 size=    8448KiB time=00:02:31.32 bitrate= 457.3kbits/s speed=0.994x elapsed=0:02:32.16    frame= 3797 fps= 25 q=28.0 size=    8448KiB time=00:02:31.80 bitrate= 455.9kbits/s speed=0.994x elapsed=0:02:32.66    frame= 3810 fps= 25 q=28.0 size=    8448KiB time=00:02:32.36 bitrate= 454.2kbits/s speed=0.995x elapsed=0:02:33.16    frame= 3822 fps= 25 q=28.0 size=    8448KiB time=00:02:32.84 bitrate= 452.8kbits/s speed=0.995x elapsed=0:02:33.66    frame= 3835 fps= 25 q=28.0 size=    8448KiB time=00:02:33.32 bitrate= 451.4kbits/s speed=0.995x elapsed=0:02:34.16    frame= 3847 fps= 25 q=28.0 size=    8448KiB time=00:02:33.84 bitrate= 449.9kbits/s speed=0.995x elapsed=0:02:34.66    frame= 3860 fps= 25 q=28.0 size=    8448KiB time=00:02:34.32 bitrate= 448.5kbits/s speed=0.995x elapsed=0:02:35.16    frame= 3872 fps= 25 q=28.0 size=    8448KiB time=00:02:34.84 bitrate= 447.0kbits/s speed=0.995x elapsed=0:02:35.66    [out#0/matroska @ 0x55b164fb2500] Error writing trailer: Immediate exit requested
[out#0/matroska @ 0x55b164fb2500] Error closing file: Immediate exit requested
[out#0/matroska @ 0x55b164fb2500] video:9235KiB audio:0KiB subtitle:0KiB other streams:0KiB global headers:0KiB muxing overhead: unknown
frame= 3904 fps= 25 q=-1.0 Lsize=    8960KiB time=00:02:36.08 bitrate= 470.3kbits/s speed=0.998x elapsed=0:02:36.38    
[libx264 @ 0x55b164fb3f00] frame I:16    Avg QP:12.18  size:208762
[libx264 @ 0x55b164fb3f00] frame P:1007  Avg QP:17.37  size:  4635
[libx264 @ 0x55b164fb3f00] frame B:2881  Avg QP:19.51  size:   503
[libx264 @ 0x55b164fb3f00] consecutive B-frames:  1.1%  1.0%  1.5% 96.4%
[libx264 @ 0x55b164fb3f00] mb I  I16..4: 77.6%  2.4% 20.0%
[libx264 @ 0x55b164fb3f00] mb P  I16..4:  1.1%  0.1%  0.3%  P16..4:  0.3%  0.1%  0.1%  0.0%  0.0%    skip:97.9%
[libx264 @ 0x55b164fb3f00] mb B  I16..4:  0.4%  0.0%  0.0%  B16..8:  0.3%  0.0%  0.0%  direct: 0.0%  skip:99.3%  L0:48.5% L1:49.3% BI: 2.2%
[libx264 @ 0x55b164fb3f00] 8x8 transform intra:3.1% inter:5.7%
[libx264 @ 0x55b164fb3f00] coded y,uvDC,uvAC intra: 13.3% 13.7% 11.4% inter: 0.1% 0.1% 0.0%
[libx264 @ 0x55b164fb3f00] i16 v,h,dc,p: 45% 54%  1%  0%
[libx264 @ 0x55b164fb3f00] i8 v,h,dc,ddl,ddr,vr,hd,vl,hu: 18% 29% 50%  1%  0%  0%  1%  0%  1%
[libx264 @ 0x55b164fb3f00] i4 v,h,dc,ddl,ddr,vr,hd,vl,hu: 33% 26% 20%  3%  4%  4%  4%  4%  4%
[libx264 @ 0x55b164fb3f00] i8c dc,h,v,p: 55% 39%  5%  0%
[libx264 @ 0x55b164fb3f00] Weighted P-Frames: Y:0.0% UV:0.0%
[libx264 @ 0x55b164fb3f00] kb/s:484.28
Exiting normally, received signal 2.
